<?xml version="1.0" encoding="UTF-8"?>
<svg version="1.1" xmlns="http://www.w3.org/2000/svg" width="749" height="668">
<path d="M0 0 C247.17 0 494.34 0 749 0 C749 220.44 749 440.88 749 668 C501.83 668 254.66 668 0 668 C0 447.56 0 227.12 0 0 Z " fill="#001834" transform="translate(0,0)"/>
<path d="M0 0 C0.96172119 0.32943604 0.96172119 0.32943604 1.94287109 0.66552734 C11.08684102 3.85970028 20.86442765 7.71543354 27.72509766 14.77514648 C31.35032208 18.40174306 33.77788137 20.45419758 39.03125 20.54296875 C40.85581192 20.45330969 42.67909386 20.33367036 44.5 20.1875 C57.55279235 19.65870185 69.34787545 21.72239037 81 28 C81.79535156 28.41894531 82.59070313 28.83789062 83.41015625 29.26953125 C101.42550386 39.37706013 112.47419256 55.72967449 119 75 C119 75.66 119 76.32 119 77 C119.87011719 77.24621094 120.74023438 77.49242187 121.63671875 77.74609375 C138.97613766 84.21061578 151.32083233 102.38282662 158.94140625 118.44140625 C167.48891222 139.10050741 167.39965435 162.57131143 159.5390625 183.41796875 C149.81329181 206.05383606 133.50682608 221.63886572 111.25 231.75 C94.49786185 238.13093756 78.22032882 238.59883186 60.48046875 238.53125 C57.9622635 238.53395039 55.44405926 238.53783734 52.92585754 238.54284668 C47.02137785 238.54944624 41.11718794 238.53564196 35.21275073 238.5142436 C29.83440611 238.49697809 24.45643748 238.50930346 19.0781166 238.52879 C13.22609592 238.54913625 7.37427889 238.54697999 1.52224159 238.53526306 C-0.95490279 238.53259741 -3.43206095 238.5358598 -5.90918922 238.54518127 C-9.35755747 238.55532558 -12.80488341 238.53988088 -16.25317383 238.51757812 C-17.27290283 238.52567505 -18.29263184 238.53377197 -19.34326172 238.54211426 C-23.75274 238.48920798 -26.27715539 238.44954789 -30.08573914 236.08093262 C-33.18666437 232.71001458 -34.02252761 231.23901867 -33.9375 226.5625 C-32.76417978 222.10388317 -31.70787124 220.74912401 -28 218 C-24.37216 217.27208753 -20.80316284 217.35084266 -17.11376953 217.40405273 C-16.01547318 217.3999942 -14.91717682 217.39593567 -13.78559875 217.39175415 C-11.40116493 217.38623566 -9.01668293 217.39224882 -6.63229752 217.40841484 C-2.84687575 217.43383508 0.93745667 217.42903308 4.72293091 217.41651917 C12.09135779 217.39751102 19.45937551 217.41141599 26.82776642 217.43199158 C36.80882775 217.45884728 46.78952 217.46491682 56.77060318 217.43699837 C60.47906928 217.43366179 64.1868479 217.45478675 67.89523315 217.47740173 C79.87326574 217.49182566 90.67180369 217.1733317 102 213 C103.12543465 212.58744965 103.12543465 212.58744965 104.27360535 212.16656494 C112.83272973 208.69268412 119.60685897 203.56592863 126 197 C126.62261719 196.40960938 127.24523437 195.81921875 127.88671875 195.2109375 C132.0178357 190.99626987 134.66352566 186.21940281 137.3125 181 C137.65039551 180.33540771 137.98829102 179.67081543 138.33642578 178.98608398 C145.19426235 164.86241297 145.80965545 145.48564018 141.20605469 130.54492188 C135.1419741 113.91685847 123.21018657 101.1598061 107.21875 93.703125 C105.4999984 92.9030165 103.77167548 92.12289147 102.03125 91.37109375 C99.35186861 89.56251131 98.88599129 88.07623372 98 85 C97.69039969 83.27735212 97.42066532 81.54714751 97.1875 79.8125 C95.03693115 67.4880862 87.51953671 56.92817577 77.52734375 49.56640625 C66.18187426 42.53467014 54.2057293 40.01659463 41 41 C38.50140533 41.63511764 36.27448897 42.382008 33.9296875 43.44140625 C31.21912179 44.22604369 29.65970952 43.92529676 27 43 C25.03515625 41.03125 25.03515625 41.03125 23.0625 38.5 C13.08630023 26.9763369 -2.78888197 18.74114684 -18 17 C-28.04265399 16.49064152 -38.23576168 16.38916039 -48 19 C-48.94746094 19.23332031 -49.89492188 19.46664063 -50.87109375 19.70703125 C-59.44550952 22.14889998 -66.04045118 26.63478797 -73 32 C-73.82628906 32.61746094 -74.65257812 33.23492187 -75.50390625 33.87109375 C-89.7361739 45.38066672 -96.34511997 63.45470587 -99 81 C-99.14151291 82.87382606 -99.26890735 84.7488352 -99.375 86.625 C-99.66535903 90.33788888 -99.95542597 90.94399673 -102.4375 94.0625 C-106.20775846 96.91318323 -108.25281495 97.4654103 -113 97 C-116.17496188 94.90741149 -117.88460857 93.17308714 -120 90 C-122.58801076 70.71029186 -114.13079136 48.5382043 -102.75585938 33.33740234 C-88.27884591 14.88079989 -68.41535167 0.72141199 -44.95703125 -3.5546875 C-29.77141432 -5.26363156 -14.50040734 -5.03075357 0 0 Z " fill="#00C5E6" transform="translate(423,245)"/>
<path d="M0 0 C3.96 0 7.92 0 12 0 C12 34.32 12 68.64 12 104 C8.04 104 4.08 104 0 104 C-0.495 99.545 -0.495 99.545 -1 95 C-2.134375 95.763125 -3.26875 96.52625 -4.4375 97.3125 C-13.90977609 103.10111317 -24.0080749 104.67251514 -35 103 C-46.56663124 99.11089331 -53.78339131 92.19968214 -59.26953125 81.53125 C-63.03436809 72.6978519 -64.09757674 62.27916783 -60.7421875 53.14453125 C-56.31352997 42.87877567 -48.98808052 35.80196179 -39 31 C-24.38336414 27.14391781 -12.64585077 30.77379956 0 38 C0 25.46 0 12.92 0 0 Z " fill="#F5F7F7" transform="translate(173,220)"/>
<path d="M0 0 C0.82564453 0.65935547 0.82564453 0.65935547 1.66796875 1.33203125 C1.99796875 -1.30796875 2.32796875 -3.94796875 2.66796875 -6.66796875 C6.62796875 -6.66796875 10.58796875 -6.66796875 14.66796875 -6.66796875 C14.66796875 17.75203125 14.66796875 42.17203125 14.66796875 67.33203125 C10.70796875 67.33203125 6.74796875 67.33203125 2.66796875 67.33203125 C2.66796875 64.36203125 2.66796875 61.39203125 2.66796875 58.33203125 C2.06210937 58.73035156 1.45625 59.12867188 0.83203125 59.5390625 C-9.35457133 65.98012967 -18.82139463 68.93885114 -30.8984375 66.8984375 C-41.02384603 64.34727823 -48.93179 58.18571832 -54.33203125 49.33203125 C-59.60512474 40.32877516 -61.16432489 29.79731906 -58.6484375 19.546875 C-54.52213373 8.4692047 -46.86766005 0.27797321 -36.32421875 -4.90625 C-24.32203478 -9.49532034 -10.32848692 -7.38737675 0 0 Z " fill="#F7F9FA" transform="translate(487.33203125,141.66796875)"/>
<path d="M0 0 C3.96 0 7.92 0 12 0 C12 24.75 12 49.5 12 75 C8.04 75 4.08 75 0 75 C0 72.03 0 69.06 0 66 C-1.44632813 66.74056641 -1.44632813 66.74056641 -2.921875 67.49609375 C-4.19780852 68.14344237 -5.47385621 68.79056599 -6.75 69.4375 C-7.70132813 69.92573242 -7.70132813 69.92573242 -8.671875 70.42382812 C-17.55615876 74.91224232 -28.28923917 75.74249011 -37.9375 72.875 C-47.74073739 68.93159248 -54.78583046 61.19023111 -59.23828125 51.796875 C-62.73730651 43.54276414 -62.52940764 30.85272895 -59.5625 22.4375 C-55.0998519 13.46522855 -47.27655831 5.84395612 -38 2 C-25.09043886 -0.44031377 -13.50298859 0.02068027 -2.375 7.25 C-1.59125 7.8275 -0.8075 8.405 0 9 C0 6.03 0 3.06 0 0 Z " fill="#F7F9FA" transform="translate(252,249)"/>
<path d="M0 0 C8.42669941 4.96625068 15.00662231 11.25530636 17.8671875 20.83984375 C20.03193961 32.9791075 18.65067825 43.16820376 12.5625 53.875 C5.6110714 62.81255106 -2.20189675 67.8885861 -13.625 69.6875 C-23.86817066 70.72817046 -31.91087182 68.64219323 -40.390625 62.7734375 C-47.67543802 56.77546271 -51.66484027 49.56797919 -54.625 40.6875 C-55.54582478 29.32289036 -55.27246945 20.41363617 -48.625 10.6875 C-48.16867187 10.00300781 -47.71234375 9.31851563 -47.2421875 8.61328125 C-36.2152846 -5.91072514 -15.46429242 -8.15529849 0 0 Z " fill="#F7F9FA" transform="translate(379.625,139.3125)"/>
<path d="M0 0 C7.69281215 5.47821471 13.7323657 13.48138832 16.5703125 22.52734375 C16.1328125 25.2265625 16.1328125 25.2265625 15.5703125 27.52734375 C14.25933594 27.85605469 14.25933594 27.85605469 12.921875 28.19140625 C4.10611654 30.46465214 -4.49391115 33.14871025 -13.11328125 36.07421875 C-18.847152 38.01807579 -24.63056181 39.78927726 -30.4296875 41.52734375 C-31.15929687 41.75421875 -31.88890625 41.98109375 -32.640625 42.21484375 C-35.78866388 43.17120999 -38.07537032 43.52734375 -41.4296875 43.52734375 C-40.9346875 44.14609375 -40.4396875 44.76484375 -39.9296875 45.40234375 C-38.4296875 47.52734375 -38.4296875 47.52734375 -38.4296875 49.52734375 C-37.8934375 49.79546875 -37.3571875 50.06359375 -36.8046875 50.33984375 C-35.00461034 51.23988233 -33.21464417 52.16017882 -31.4296875 53.08984375 C-25.22849647 56.06124779 -18.94224042 56.57274957 -12.3671875 54.40234375 C-5.1104909 51.35139469 -0.88810308 46.44417492 2.5703125 39.52734375 C7.08509648 40.05849481 9.91698107 41.89354667 13.5703125 44.52734375 C11.96355529 51.48995834 7.78211013 57.17102493 2.0625 61.3671875 C-7.68293916 67.31626901 -16.97270949 69.72164691 -28.4296875 68.52734375 C-39.04335519 65.69173216 -46.98382088 59.75643211 -52.8671875 50.52734375 C-58.07949994 40.98346973 -59.03647711 30.36718298 -56.84765625 19.6875 C-53.38962655 9.69237305 -44.82955363 1.1801203 -35.4296875 -3.47265625 C-23.36684921 -7.58821284 -10.89208068 -6.60179167 0 0 Z " fill="#F7F8F9" transform="translate(168.4296875,140.47265625)"/>
<path d="M0 0 C10.17472849 -0.56768871 18.24621925 2.95611885 25.91796875 9.53515625 C31.65581575 15.07038265 36.8462592 21.76845411 37.79296875 29.91015625 C37.68984375 30.67328125 37.58671875 31.43640625 37.48046875 32.22265625 C33.92260136 34.59456784 30.37205464 35.46489682 26.29296875 36.53515625 C18.29709916 38.69351109 10.39559173 41.06624004 2.50537109 43.58007812 C-1.10267678 44.72504822 -4.71792403 45.84699107 -8.33203125 46.97265625 C-11.73577399 48.03343669 -15.13709778 49.09517843 -18.51953125 50.22265625 C-17.11635895 53.55699867 -15.5496332 55.27792104 -12.64453125 57.41015625 C-11.62746094 58.17392578 -11.62746094 58.17392578 -10.58984375 58.953125 C-5.47302628 62.09079609 0.67176833 61.88430954 6.48046875 61.22265625 C14.04789714 58.9058756 18.38244376 54.84041282 22.48046875 48.22265625 C23.14046875 47.23265625 23.80046875 46.24265625 24.48046875 45.22265625 C28.27148065 46.6721608 31.86793255 48.37438191 35.48046875 50.22265625 C34.32750935 56.95088508 29.17803937 63.17830901 23.8671875 67.203125 C21.44357652 68.65729159 19.01965955 69.98328931 16.48046875 71.22265625 C15.84625 71.58230469 15.21203125 71.94195312 14.55859375 72.3125 C6.25215006 75.95047252 -5.27561485 75.38656703 -13.59765625 72.13671875 C-16.48179976 70.76499196 -18.97256693 69.14702929 -21.51953125 67.22265625 C-23.00453125 66.17078125 -23.00453125 66.17078125 -24.51953125 65.09765625 C-30.39851495 60.10052011 -34.84137078 51.79768947 -35.77050781 44.15942383 C-36.62036951 31.80569523 -35.44663534 22.59484476 -27.46875 12.671875 C-21.36546807 6.04824222 -13.84692667 0.86148242 -4.6328125 0.2890625 C-3.08630194 0.24046605 -1.54126725 0.13620501 0 0 Z " fill="#F7F9FA" transform="translate(350.51953125,363.77734375)"/>
<path d="M0 0 C3.96 0 7.92 0 12 0 C12.33 1.65 12.66 3.3 13 5 C14.051875 4.360625 15.10375 3.72125 16.1875 3.0625 C22.48816481 -0.76731587 29.83695697 -0.63492641 37 0 C43.7444684 1.69337442 50.00964125 5.12115765 55 10 C55 10.66 55 11.32 55 12 C55.68964844 11.38511719 56.37929688 10.77023437 57.08984375 10.13671875 C65.56709818 2.84558223 71.95415486 -0.68219634 83.2421875 -0.2734375 C92.62361388 0.65673225 99.39612568 4.23219973 106 11 C110.10773477 16.74706011 112.13135876 21.98193227 112.11352539 29.04394531 C112.11341209 30.54504852 112.11341209 30.54504852 112.11329651 32.07647705 C112.10813522 33.14952087 112.10297394 34.2225647 112.09765625 35.328125 C112.0962413 36.43226746 112.09482635 37.53640991 112.09336853 38.67401123 C112.08777258 42.19936842 112.07522079 45.72466202 112.0625 49.25 C112.05748448 51.64062408 112.05292166 54.03124916 112.04882812 56.421875 C112.03780447 62.28127449 112.02054257 68.14062646 112 74 C108.04 74 104.08 74 100 74 C99.9906543 72.54706543 99.98130859 71.09413086 99.97167969 69.59716797 C99.93174588 64.19597955 99.86597658 58.79535867 99.79248047 53.39453125 C99.76429071 51.05899355 99.7430663 48.7233608 99.72900391 46.38769531 C99.70754754 43.02619841 99.66088094 39.66584193 99.609375 36.3046875 C99.60814636 35.26384003 99.60691772 34.22299255 99.60565186 33.15060425 C99.48439701 27.12086951 99.00306851 23.60011445 95 19 C89.77126234 14.29413611 85.68579889 12.40310268 78.66796875 12.55859375 C73.96506372 13.33667321 70.35083418 15.66872322 67 19 C62.70099019 25.02565305 62.39945446 29.89795402 62.390625 37.18359375 C62.37408875 38.23909927 62.35755249 39.2946048 62.34051514 40.38209534 C62.29215763 43.73395682 62.27069071 47.08536496 62.25 50.4375 C62.22183019 52.71812161 62.19190135 54.99872222 62.16015625 57.27929688 C62.08640145 62.85282726 62.03675163 68.42610777 62 74 C58.04 74 54.08 74 50 74 C49.99589111 72.58783203 49.99178223 71.17566406 49.98754883 69.72070312 C49.96569835 64.45731626 49.91134627 59.19467064 49.84741211 53.93164062 C49.82428382 51.65827565 49.8098486 49.38480432 49.80444336 47.11132812 C49.79511636 43.83396515 49.75404118 40.55826329 49.70703125 37.28125 C49.7109639 36.27259888 49.71489655 35.26394775 49.71894836 34.22473145 C49.58415515 27.63441081 48.36471594 23.05516222 44 18 C38.91769211 14.03579984 34.76509638 12.56073014 28.41015625 12.6640625 C23.50163601 13.34823226 19.85574324 15.73086033 16.74342346 19.53649902 C12.637424 25.37365225 12.26563973 30.27186336 12.29296875 37.28125 C12.27784744 38.33534058 12.26272614 39.38943115 12.24714661 40.47546387 C12.20441873 43.81719607 12.19544562 47.15802235 12.1875 50.5 C12.16434424 52.7760655 12.13897667 55.05210964 12.11132812 57.328125 C12.04862245 62.88549624 12.01617083 68.44230642 12 74 C8.04 74 4.08 74 0 74 C0 49.58 0 25.16 0 0 Z " fill="#F8F9FA" transform="translate(394,364)"/>
<path d="M0 0 C4.29 0 8.58 0 13 0 C13.01401855 2.0728125 13.01401855 2.0728125 13.02832031 4.1875 C13.0683434 9.33902629 13.13413701 14.48996312 13.20751953 19.64111328 C13.23565772 21.86597086 13.25690765 24.09092707 13.27099609 26.31591797 C13.29252432 29.52362303 13.33922678 32.73015103 13.390625 35.9375 C13.39185364 36.92427734 13.39308228 37.91105469 13.39434814 38.92773438 C13.52368295 45.09564384 14.45604985 49.85698644 18 55 C21.8805113 58.68648574 25.75189424 61.26918434 31.1875 61.4375 C36.62555192 61.29392107 40.78549616 59.39525159 45 56 C46.78049436 53.7142965 47.7894369 51.67332684 49 49 C49.495 48.01 49.495 48.01 50 47 C50.11805177 45.4892243 50.17696449 43.97361169 50.20532227 42.45849609 C50.22526749 41.51767181 50.24521271 40.57684753 50.26576233 39.60751343 C50.28247482 38.58976837 50.29918732 37.57202332 50.31640625 36.5234375 C50.33718735 35.48305328 50.35796844 34.44266907 50.37937927 33.37075806 C50.44489872 30.03890751 50.50377092 26.7069765 50.5625 23.375 C50.60568294 21.11978326 50.64929715 18.86457473 50.69335938 16.609375 C50.80058258 11.07299967 50.90184329 5.5365432 51 0 C54.96 0 58.92 0 63 0 C63 24.42 63 48.84 63 74 C59.04 74 55.08 74 51 74 C51 72.02 51 70.04 51 68 C50.20335937 68.39832031 50.20335937 68.39832031 49.390625 68.8046875 C47.26041667 69.86979167 45.13020833 70.93489583 43 72 C42.39027344 72.36609375 41.78054687 72.7321875 41.15234375 73.109375 C35.58244058 75.41416252 28.05268678 74.82565359 22.328125 73.27734375 C20.09402157 72.32592384 18.07130105 71.26510603 16 70 C15.04673828 69.43925781 15.04673828 69.43925781 14.07421875 68.8671875 C6.52392196 63.98455446 2.48004924 56.80818672 0.36825562 48.14138794 C-1.08508958 39.69025851 -0.38846146 30.78758602 -0.25 22.25 C-0.22990261 20.08855823 -0.21165758 17.9270984 -0.1953125 15.765625 C-0.15157793 10.50996501 -0.08272875 5.25518491 0 0 Z " fill="#F7F9FA" transform="translate(178,364)"/>
<path d="M0 0 C5.03718131 3.10937118 9.34002268 6.9592187 11.53125 12.5625 C11.65625 15.3125 11.65625 15.3125 11.53125 17.5625 C7.49288984 17.84823303 3.56144212 18.00609162 -0.46875 17.5625 C-2.78125 15.25 -2.78125 15.25 -4.46875 12.5625 C-10.80487032 8.81255124 -17.74855938 8.37099557 -24.8828125 10.171875 C-27.91581909 11.25272826 -30.17713973 12.27088973 -32.46875 14.5625 C-33.30416854 16.93007327 -33.30416854 16.93007327 -32.46875 19.5625 C-26.03873838 25.19921317 -17.30230188 27.06728258 -9.3125 29.43554688 C-1.54508933 31.86286271 5.43291291 34.90597547 10.03125 41.9375 C12.07185601 46.86896452 12.69962715 50.70347574 10.68359375 55.63671875 C6.81408359 62.52313513 0.42946509 67.61092493 -7.078125 70.09375 C-17.7059698 72.17764114 -28.71303146 71.01675265 -37.78125 64.9375 C-41.90567356 61.59947768 -44.52142926 57.47761244 -46.46875 52.5625 C-46.46875 51.5725 -46.46875 50.5825 -46.46875 49.5625 C-44.38721065 49.42713978 -42.30313794 49.33034535 -40.21875 49.25 C-39.05859375 49.19199219 -37.8984375 49.13398438 -36.703125 49.07421875 C-33.46875 49.5625 -33.46875 49.5625 -31.2421875 51.96875 C-30.65695313 52.8246875 -30.07171875 53.680625 -29.46875 54.5625 C-23.98454787 57.74333723 -18.75446364 58.60238172 -12.46875 57.5625 C-8.95212101 56.18079584 -5.71213375 54.49472862 -2.46875 52.5625 C-2.10424618 48.99665532 -2.10424618 48.99665532 -3.75952148 45.98754883 C-7.77209485 42.64211378 -13.58838751 41.50858413 -18.52734375 40.01953125 C-29.7460095 36.62599568 -38.69843871 33.71796694 -45.46875 23.5625 C-46.14795372 18.08938164 -46.21756716 13.1465363 -43.84375 8.125 C-32.09288649 -4.55356326 -15.76437496 -7.62233514 0 0 Z " fill="#F6F8F9" transform="translate(236.46875,138.4375)"/>
<path d="M0 0 C3.96 0 7.92 0 12 0 C12 1.98 12 3.96 12 6 C12.54269531 5.65066406 13.08539063 5.30132812 13.64453125 4.94140625 C14.71767578 4.25884766 14.71767578 4.25884766 15.8125 3.5625 C16.52019531 3.11003906 17.22789062 2.65757812 17.95703125 2.19140625 C23.84142638 -1.24021997 31.39457317 -0.90769121 38 0 C47.18834485 2.94700637 54.35199324 8.41363079 59.375 16.625 C61.56293854 21.16918005 62.1264626 25.05897256 62.11352539 30.06567383 C62.11344986 31.04631302 62.11337433 32.02695221 62.11329651 33.03730774 C62.10813522 34.0833165 62.10297394 35.12932526 62.09765625 36.20703125 C62.0962413 37.28756271 62.09482635 38.36809418 62.09336853 39.48136902 C62.0877808 42.92510776 62.0752305 46.36878098 62.0625 49.8125 C62.05748342 52.15038968 62.05292079 54.48828039 62.04882812 56.82617188 C62.03781538 62.55080642 62.02055912 68.2753921 62 74 C58.04 74 54.08 74 50 74 C49.99589111 72.58783203 49.99178223 71.17566406 49.98754883 69.72070312 C49.96569835 64.45731626 49.91134627 59.19467064 49.84741211 53.93164062 C49.82428382 51.65827565 49.8098486 49.38480432 49.80444336 47.11132812 C49.79511636 43.83396515 49.75404118 40.55826329 49.70703125 37.28125 C49.7109639 36.27259888 49.71489655 35.26394775 49.71894836 34.22473145 C49.5627855 26.58960414 47.55387041 21.53179668 42.11328125 16.125 C36.81444818 12.81466611 32.19095251 11.9175949 26 13 C20.12535319 15.03791042 15.75549249 19.48901502 13 25 C12.88159887 26.57206643 12.82296967 28.14883269 12.79467773 29.72509766 C12.77473251 30.70596344 12.75478729 31.68682922 12.73423767 32.69741821 C12.70916893 34.28965714 12.70916893 34.28965714 12.68359375 35.9140625 C12.66281265 36.99883881 12.64203156 38.08361511 12.62062073 39.20126343 C12.55509366 42.67577621 12.49622553 46.15036624 12.4375 49.625 C12.39431779 51.97657058 12.3507036 54.32813326 12.30664062 56.6796875 C12.19940902 62.45304529 12.09815045 68.22648098 12 74 C8.04 74 4.08 74 0 74 C0 49.58 0 25.16 0 0 Z " fill="#F9FBFC" transform="translate(111,364)"/>
<path d="M0 0 C7.07927234 3.88395875 11.09383383 8.89191258 13.6875 16.5 C14.85407452 24.49410541 13.33574081 30.90937837 8.6875 37.5 C3.93661178 42.77766034 -1.44680265 46.85124035 -8.65625 47.8125 C-16.73271035 48.21133755 -23.08294953 45.78535744 -29.125 40.4375 C-34.03965789 35.09995294 -36.39172331 28.12306125 -36.875 20.9375 C-36.50044383 13.97075532 -33.04047886 7.71623242 -27.9375 3.0625 C-19.07102276 -3.65395164 -10.07592388 -4.58792068 0 0 Z " fill="#041A37" transform="translate(476.3125,149.5)"/>
<path d="M0 0 C5.92186798 3.44013114 9.67550116 8.03015179 12.29296875 14.33203125 C13.42004383 23.95636843 12.54033036 31.16653242 6.79296875 38.95703125 C1.75897441 44.47698048 -5.34962423 47.52469021 -12.76953125 47.95703125 C-19.99614632 47.53193625 -26.28305378 44.27464734 -31.14453125 38.95703125 C-36.8457034 31.39853673 -37.70736783 24.70727872 -36.70703125 15.33203125 C-34.92998138 8.24752578 -29.47628761 3.47655606 -23.70703125 -0.66796875 C-16.00660261 -4.43262275 -7.6480467 -3.44101306 0 0 Z " fill="#031A37" transform="translate(373.70703125,149.66796875)"/>
<path d="M0 0 C6.52049936 3.4125978 11.92447273 9.53363136 14.125 16.5625 C15.24713889 24.91357574 14.01203937 31.65663328 9.125 38.5625 C4.45662201 43.80749475 -0.87770852 47.0438475 -7.85546875 47.94921875 C-15.97532912 48.37758184 -21.72002479 47.00514535 -27.875 41.5625 C-33.30097459 35.23407641 -36.48703708 28.41103081 -36.24609375 19.9921875 C-35.06705547 12.2725895 -30.71842256 6.78005205 -24.83984375 1.9375 C-17.72386694 -3.04226906 -8.06775444 -3.0834873 0 0 Z " fill="#031937" transform="translate(237.875,263.4375)"/>
<path d="M0 0 C4.37362298 3.44246454 7.50003388 7.24880233 8.94140625 12.6796875 C9.86325858 21.74107693 9.50842894 28.67638576 4.17578125 36.15625 C-0.30612112 41.2179789 -6.59611107 44.11255672 -13.23046875 45.19921875 C-20.83522447 45.45978779 -26.35150374 44.05792275 -31.99609375 38.9140625 C-37.65384846 32.9262721 -40.1333579 27.39792165 -40.49609375 19.1796875 C-40.22309464 10.94421434 -36.76368523 5.6944528 -30.85546875 0.15234375 C-21.22489491 -7.74053959 -9.97831461 -6.39975396 0 0 Z " fill="#031936" transform="translate(163.05859375,266.3203125)"/>
<path d="M0 0 C2.81375688 2.15939481 5.25389363 4.48574031 7.6875 7.0625 C6.13249019 10.87934226 3.65154505 13.25445732 0.6875 16.0625 C-1.79144956 14.96074464 -3.6370446 13.796207 -5.75 12.0625 C-11.61313446 7.48639506 -18.39358962 6.7702875 -25.6796875 7.203125 C-32.80362754 8.33703933 -37.34931454 12.25626741 -41.69921875 17.84375 C-45.27355833 23.763358 -45.22072336 30.3673667 -44.3125 37.0625 C-42.10697871 44.4718319 -38.06527266 49.35560368 -31.3125 53.0625 C-25.00472409 55.58561036 -18.74099982 56.51938263 -12.3984375 53.82421875 C-8.26118046 51.62459528 -4.48476504 49.5603949 -1.3125 46.0625 C2.50434226 47.61750981 4.87945732 50.09845495 7.6875 53.0625 C5.39828188 59.24338892 -0.56593965 62.56221621 -6.2578125 65.21484375 C-15.5143993 69.03362576 -25.15592269 69.61060543 -34.5625 66 C-45.09713821 61.09025347 -50.80716854 53.60578539 -56.1875 43.5625 C-59.14312604 34.74871697 -58.67719821 22.57084418 -54.640625 14.19921875 C-52.27189653 10.38835265 -49.50236646 7.20495868 -46.3125 4.0625 C-45.77753906 3.505625 -45.24257813 2.94875 -44.69140625 2.375 C-32.155927 -9.64944053 -14.05772074 -8.22244043 0 0 Z " fill="#F6F8F9" transform="translate(311.3125,140.9375)"/>
<path d="M0 0 C4.29 0 8.58 0 13 0 C14.98287648 4.68596313 16.96294444 9.37303162 18.9375 14.0625 C19.3779364 15.10836273 19.3779364 15.10836273 19.82727051 16.175354 C24.16631794 26.49238739 28.37146308 36.8504255 32.37084961 47.30493164 C32.70737549 48.18141357 33.04390137 49.05789551 33.390625 49.9609375 C33.67969727 50.72196777 33.96876953 51.48299805 34.26660156 52.26708984 C34.87010274 53.99530086 34.87010274 53.99530086 36 55 C36.24234375 54.39414062 36.4846875 53.78828125 36.734375 53.1640625 C43.82291667 35.44270833 50.91145833 17.72135417 58 0 C62.62 0 67.24 0 72 0 C70.92359339 4.62854842 69.27631189 8.6726794 67.2355957 12.96777344 C64.19117083 19.49922664 61.47581961 26.11725165 58.85546875 32.828125 C58.40021317 33.98374939 57.94495758 35.13937378 57.47590637 36.33001709 C56.04284859 39.96861231 54.61472555 43.60911357 53.1875 47.25 C51.74230264 50.93367848 50.2953516 54.61665932 48.84553528 58.29852295 C47.94813519 60.57780942 47.05327368 62.8580973 46.16117859 65.13946533 C45.76018448 66.15852966 45.35919037 67.17759399 44.94604492 68.22753906 C44.59330002 69.12764709 44.24055511 70.02775513 43.87712097 70.95513916 C43 73 43 73 42 74 C39.81360547 74.07258946 37.62499611 74.08373783 35.4375 74.0625 C33.64119141 74.04896484 33.64119141 74.04896484 31.80859375 74.03515625 C30.41833984 74.01775391 30.41833984 74.01775391 29 74 C25.36347472 64.94343769 21.72974175 55.88576063 18.09957218 46.82664871 C16.41386442 42.62020812 14.72719622 38.41415799 13.03833008 34.20898438 C11.40861021 30.15097917 9.78141724 26.09196925 8.15597343 22.03224945 C7.53530252 20.4833443 6.91372101 18.93480372 6.2912159 17.38663483 C5.41967851 15.21867476 4.55138366 13.04944269 3.68383789 10.87988281 C3.42561249 10.23971222 3.16738708 9.59954163 2.90133667 8.93997192 C1.7126853 5.95800048 0.78176598 3.12706392 0 0 Z " fill="#F7F9FA" transform="translate(247,364)"/>
<path d="M0 0 C3.96 0 7.92 0 12 0 C12 34.65 12 69.3 12 105 C8.04 105 4.08 105 0 105 C0 70.35 0 35.7 0 0 Z " fill="#F8FAFB" transform="translate(407,104)"/>
<path d="M0 0 C2.83377611 2.16671023 5.57097094 4.38169594 8 7 C8 7.66 8 8.32 8 9 C-0.01468309 12.3276511 -8.00857568 14.94020656 -16.37841797 17.18310547 C-21.93628327 18.67812723 -27.38058609 20.39206706 -32.8125 22.30078125 C-35 23 -35 23 -37 23 C-37.46299887 15.43768518 -35.49733957 10.61984285 -30.9375 4.8125 C-22.89276421 -3.8913633 -10.28345715 -5.90346614 0 0 Z " fill="#061C39" transform="translate(160,150)"/>
<path d="M0 0 C8.01518486 4.79555458 8.01518486 4.79555458 9.5 9.25 C4.36520991 12.09985066 -0.81074371 13.60332099 -6.4375 15.125 C-14.25168817 17.28595058 -21.92561151 19.65841077 -29.56640625 22.3671875 C-32.5 23.25 -32.5 23.25 -36.5 23.25 C-36.04759312 14.95587385 -33.27859963 8.47728259 -27.0625 2.8125 C-20.03419024 -3.13192585 -8.17904492 -3.94957682 0 0 Z " fill="#061B38" transform="translate(362.5,378.75)"/>
<path d="M0 0 C29.37 0 58.74 0 89 0 C89 0.99 89 1.98 89 3 C50.72 3.33 12.44 3.66 -27 4 C-25 2 -25 2 -22.47802734 1.77294922 C-21.4411377 1.78342285 -20.40424805 1.79389648 -19.3359375 1.8046875 C-18.21445312 1.81113281 -17.09296875 1.81757813 -15.9375 1.82421875 C-14.761875 1.84097656 -13.58625 1.85773438 -12.375 1.875 C-10.59996094 1.88853516 -10.59996094 1.88853516 -8.7890625 1.90234375 C-5.85917477 1.92597188 -2.9296866 1.95891486 0 2 C0 1.34 0 0.68 0 0 Z " fill="#000A25" transform="translate(419,459)"/>
<path d="M0 0 C4.6 2.2 4.6 2.2 6 5 C6.6469176 9.7040151 6.63833677 12.99101607 4.0625 17.0625 C0.48556273 19.32546031 -1.73615286 19.74371256 -5.90625 19.47265625 C-8 19 -8 19 -10.5625 17.0625 C-12.50766628 12.9184501 -12.9268405 9.49598944 -12 5 C-8.64770496 0.02234979 -5.86333845 -0.83761978 0 0 Z " fill="#F6F8F9" transform="translate(529,420)"/>
<path d="M0 0 C0.66 0 1.32 0 2 0 C2 2.97 2 5.94 2 9 C0.35 8.01 -1.3 7.02 -3 6 C-2 4 -1 2 0 0 Z " fill="#122543" transform="translate(488,135)"/>
<path d="M0 0 C0.33 0 0.66 0 1 0 C2.7479503 5.24385089 3.19392201 9.47322267 3 15 C2.67 15 2.34 15 2 15 C1.87625 14.236875 1.7525 13.47375 1.625 12.6875 C1.11897208 9.79732864 1.11897208 9.79732864 -1 7 C-0.625 3.3125 -0.625 3.3125 0 0 Z " fill="#008EC7" transform="translate(584,372)"/>
<path d="M0 0 C0.99 0.33 1.98 0.66 3 1 C0.36 3.64 -2.28 6.28 -5 9 C-5.66 8.67 -6.32 8.34 -7 8 C-4.69 5.36 -2.38 2.72 0 0 Z " fill="#03DFE4" transform="translate(331,266)"/>
<path d="M0 0 C0.66 0.33 1.32 0.66 2 1 C-0.64 3.97 -3.28 6.94 -6 10 C-6.33 9.01 -6.66 8.02 -7 7 C-4.66666667 4.66666667 -2.33333333 2.33333333 0 0 Z " fill="#02EBEB" transform="translate(344,279)"/>
<path d="M0 0 C-2.95183101 2.95183101 -5.95511947 3.08663988 -10 4 C-9 1 -9 1 -7.25 -0.25 C-4.47275102 -1.17574966 -2.78428335 -0.77341204 0 0 Z " fill="#253F5D" transform="translate(163,160)"/>
<path d="M0 0 C-1.49097658 3.7952131 -3.75700849 5.61042731 -7 8 C-4.18918919 0 -4.18918919 0 0 0 Z " fill="#1A2844" transform="translate(465,380)"/>
<path d="M0 0 C0 3 0 3 -1.53125 4.60546875 C-2.1809375 5.12753906 -2.830625 5.64960938 -3.5 6.1875 C-4.1496875 6.71730469 -4.799375 7.24710938 -5.46875 7.79296875 C-5.9740625 8.19128906 -6.479375 8.58960938 -7 9 C-7.66 8.34 -8.32 7.68 -9 7 C-8.071875 6.401875 -7.14375 5.80375 -6.1875 5.1875 C-3.79745282 3.54727155 -1.91529747 2.1281083 0 0 Z " fill="#1A2E4C" transform="translate(388,197)"/>
<path d="M0 0 C2.97 0 5.94 0 9 0 C9.66 1.32 10.32 2.64 11 4 C7.37 3.01 3.74 2.02 0 1 C0 0.67 0 0.34 0 0 Z " fill="#2A4A69" transform="translate(212,163)"/>
<path d="M0 0 C0.33 0 0.66 0 1 0 C1 2.64 1 5.28 1 8 C-3.875 6.25 -3.875 6.25 -5 4 C-3.68 4 -2.36 4 -1 4 C-0.67 2.68 -0.34 1.36 0 0 Z " fill="#244264" transform="translate(251,250)"/>
<path d="M0 0 C0.78375 0.04125 1.5675 0.0825 2.375 0.125 C-0.24014317 2.24538635 -2.82137616 4.25591744 -5.625 6.125 C-4.86443086 2.32215429 -4.27658992 0.20364714 0 0 Z " fill="#03E5F0" transform="translate(396.625,463.875)"/>
<path d="M0 0 C-1.125 1.5 -1.125 1.5 -3 3 C-6.1875 3.1875 -6.1875 3.1875 -9 3 C-9 2.34 -9 1.68 -9 1 C-6.04335481 -0.4783226 -3.25770263 -0.06032783 0 0 Z " fill="#00D5C7" transform="translate(319,339)"/>
</svg>
