<?xml version="1.0" standalone="no"?>
<!DOCTYPE svg PUBLIC "-//W3C//DTD SVG 20010904//EN"
 "http://www.w3.org/TR/2001/REC-SVG-20010904/DTD/svg10.dtd">
<svg version="1.0" xmlns="http://www.w3.org/2000/svg"
 width="958.000000pt" height="960.000000pt" viewBox="0 0 958.000000 960.000000"
 preserveAspectRatio="xMidYMid meet">

<g transform="translate(0.000000,960.000000) scale(0.100000,-0.100000)"
fill="#000000" stroke="none">
<path d="M4570 8744 c-19 -2 -80 -9 -135 -15 -137 -14 -334 -53 -479 -95 -990
-283 -1770 -1028 -2103 -2008 -122 -361 -170 -684 -160 -1094 7 -303 37 -507
113 -781 205 -733 688 -1381 1337 -1794 248 -157 627 -327 731 -327 59 0 107
29 134 81 l24 44 -7 305 c-3 167 -7 305 -8 306 -1 1 -36 -5 -77 -12 -358 -65
-662 11 -846 209 -60 64 -81 101 -153 260 -77 169 -172 286 -307 377 -170 116
-164 186 16 184 185 -2 344 -108 488 -327 87 -132 173 -216 273 -266 104 -52
168 -64 309 -59 97 4 130 10 214 39 l100 34 23 95 c27 113 77 219 133 283 l41
46 -33 5 c-145 21 -338 60 -413 81 -383 111 -651 325 -805 640 -76 156 -128
353 -151 574 -14 139 -6 430 15 521 40 175 119 347 221 482 l66 88 -21 85
c-43 172 -47 309 -14 494 18 100 62 243 78 253 19 13 102 9 182 -8 163 -33
359 -120 564 -248 58 -36 112 -64 120 -61 49 15 223 49 335 66 169 26 503 36
684 20 149 -13 253 -30 414 -66 l108 -24 112 71 c123 78 316 174 417 207 133
43 284 64 317 43 6 -4 23 -41 37 -82 75 -226 84 -476 25 -676 l-21 -71 65 -85
c198 -260 270 -529 246 -917 -31 -505 -193 -852 -504 -1084 -183 -136 -464
-241 -770 -287 -38 -5 -85 -12 -103 -15 l-32 -6 39 -47 c76 -92 129 -216 151
-352 6 -38 10 -276 10 -575 0 -466 2 -513 18 -544 25 -50 63 -74 124 -79 45
-3 72 3 178 43 882 335 1560 1044 1860 1944 158 477 200 1013 119 1516 -128
787 -566 1511 -1204 1991 -354 267 -757 454 -1181 549 -230 51 -361 66 -629
70 -137 2 -266 1 -285 -1z"/>
<path d="M3036 1965 c-156 -40 -252 -142 -302 -322 -24 -87 -30 -328 -10 -423
23 -114 79 -215 148 -270 81 -65 158 -91 294 -97 125 -6 221 10 312 52 l52 24
-2 283 -3 283 -185 0 -185 0 -5 -93 c-3 -51 -3 -97 -2 -102 2 -6 37 -10 78
-10 l74 0 0 -104 c0 -121 4 -116 -106 -116 -149 0 -219 74 -245 256 -12 86 -6
168 19 259 21 78 85 146 154 163 59 15 159 15 229 1 96 -20 90 -24 115 76 27
104 27 104 -61 131 -73 23 -294 28 -369 9z"/>
<path d="M4555 1928 c-3 -7 -4 -247 -3 -533 l3 -520 115 0 115 0 3 228 2 227
150 0 150 0 2 -227 3 -228 113 -3 112 -3 0 536 0 536 -112 -3 -113 -3 -3 -197
-2 -198 -150 0 -150 0 -2 198 -3 197 -113 3 c-84 2 -114 -1 -117 -10z"/>
<path d="M6195 1928 c-3 -7 -4 -247 -3 -533 l3 -520 82 -3 c81 -3 83 -2 89 23
3 14 9 24 13 22 103 -56 126 -62 227 -62 95 0 104 2 150 30 35 22 57 46 77 83
83 153 72 463 -20 573 -72 85 -227 103 -370 43 -10 -4 -13 37 -15 173 l-3 178
-113 3 c-84 2 -114 -1 -117 -10z m426 -527 c27 -33 39 -86 39 -166 -1 -96 -14
-145 -46 -174 -24 -20 -35 -22 -83 -18 -31 2 -68 9 -83 15 l-28 12 0 165 0
165 33 15 c49 22 145 15 168 -14z"/>
<path d="M3710 1904 c-73 -31 -101 -120 -58 -184 28 -42 61 -60 108 -60 76 0
139 74 125 146 -8 46 -49 91 -93 104 -45 12 -39 12 -82 -6z"/>
<path d="M4066 1773 c-3 -21 -6 -70 -6 -110 l0 -72 -55 -12 -55 -12 0 -79 0
-78 55 0 c37 0 55 -4 55 -12 0 -7 1 -94 3 -193 4 -195 15 -243 68 -292 56 -51
172 -74 272 -53 l57 11 0 84 0 83 -65 4 c-100 6 -100 7 -100 201 l0 162 83 3
83 3 -3 92 -3 92 -82 3 -83 3 0 104 0 105 -109 0 -108 0 -7 -37z"/>
<path d="M3645 1587 c-3 -6 -4 -170 -3 -362 l3 -350 110 0 110 0 3 363 2 362
-110 0 c-80 0 -112 -4 -115 -13z"/>
<path d="M5427 1593 c-4 -3 -7 -126 -7 -273 0 -342 12 -389 113 -443 36 -19
57 -22 152 -22 99 0 116 3 169 28 70 32 72 33 79 7 5 -18 14 -20 81 -20 l76 0
0 365 0 366 -112 -3 -113 -3 -5 -264 -5 -264 -35 -13 c-43 -15 -105 -17 -130
-4 -34 18 -40 65 -40 311 l0 239 -108 0 c-60 0 -112 -3 -115 -7z"/>
</g>
</svg>
