<?xml version="1.0" standalone="no"?>
<!DOCTYPE svg PUBLIC "-//W3C//DTD SVG 20010904//EN"
 "http://www.w3.org/TR/2001/REC-SVG-20010904/DTD/svg10.dtd">
<svg version="1.0" xmlns="http://www.w3.org/2000/svg"
 width="600.000000pt" height="600.000000pt" viewBox="0 0 600.000000 600.000000"
 preserveAspectRatio="xMidYMid meet">

<g transform="translate(0.000000,600.000000) scale(0.100000,-0.100000)"
fill="#000000" stroke="none">
<path d="M755 3714 c-164 -32 -292 -129 -365 -276 -61 -124 -84 -244 -84 -443
-1 -238 36 -386 127 -507 112 -149 262 -211 512 -211 155 0 249 19 354 71 l56
28 0 364 0 365 -220 3 c-121 1 -230 0 -243 -3 -22 -5 -23 -8 -20 -133 l3 -127
98 -3 97 -3 0 -134 c0 -92 -4 -136 -12 -141 -6 -4 -59 -8 -118 -8 -99 -1 -110
1 -165 29 -68 35 -115 96 -143 184 -24 80 -25 371 0 451 40 129 120 198 252
221 80 13 199 6 294 -17 35 -9 67 -12 72 -8 4 5 19 58 33 119 18 78 23 113 15
122 -6 7 -39 22 -74 33 -130 40 -336 51 -469 24z"/>
<path d="M2690 2985 l0 -685 145 0 145 0 2 293 3 292 197 3 198 2 2 -292 3
-293 145 0 145 0 3 683 2 683 -147 -3 -148 -3 -3 -253 -2 -252 -198 2 -197 3
-3 253 -2 252 -145 0 -145 0 0 -685z"/>
<path d="M4805 3658 c-3 -7 -4 -314 -3 -683 l3 -670 108 -3 c97 -2 107 -1 107
15 1 42 14 44 71 13 148 -81 366 -76 472 11 81 66 124 195 134 394 13 273 -62
448 -217 506 -79 30 -228 24 -317 -13 l-63 -26 -2 232 -3 231 -143 3 c-108 2
-144 0 -147 -10z m522 -658 c18 -10 39 -33 48 -50 37 -72 36 -317 -2 -382 -35
-60 -148 -74 -241 -30 l-37 17 -3 206 c-3 228 -5 220 65 245 57 20 132 17 170
-6z"/>
<path d="M1600 3629 c-63 -26 -100 -85 -100 -157 0 -89 72 -162 160 -162 117
0 199 136 145 240 -34 67 -139 107 -205 79z"/>
<path d="M2060 3371 c0 -93 -4 -132 -12 -138 -7 -4 -42 -15 -78 -23 l-65 -15
0 -100 0 -100 75 -5 75 -5 5 -255 c4 -220 8 -261 24 -298 26 -59 97 -119 165
-139 67 -20 208 -22 269 -4 l43 12 -3 107 -3 107 -66 1 c-67 2 -104 14 -126
43 -9 11 -12 76 -13 223 l0 207 103 3 102 3 0 120 0 120 -102 3 -103 3 0 129
0 130 -145 0 -145 0 0 -129z"/>
<path d="M1522 3232 c-10 -7 -12 -107 -10 -468 l3 -459 143 -3 142 -3 0 465
c0 414 -2 465 -16 470 -23 9 -247 7 -262 -2z"/>
<path d="M3821 3226 c-9 -11 -11 -106 -9 -373 5 -407 7 -423 84 -499 50 -51
114 -73 229 -81 110 -7 197 15 337 85 4 2 8 -9 10 -25 l3 -28 100 0 100 0 3
454 c1 327 -1 458 -9 467 -15 19 -259 20 -277 2 -9 -9 -12 -99 -12 -344 l0
-332 -37 -15 c-60 -23 -117 -29 -163 -17 -68 18 -70 29 -70 394 0 277 -2 315
-16 320 -9 3 -71 6 -139 6 -94 0 -125 -3 -134 -14z"/>
</g>
</svg>
